<?xml version="1.0" encoding="utf-8"?>
<svg xmlns="http://www.w3.org/2000/svg" xmlns:xlink="http://www.w3.org/1999/xlink" width="300" height="200" viewBox="0 0 300 200">
<defs>
  <clipPath id="clip00">
    <rect x="0" y="0" width="300" height="200"/>
  </clipPath>
</defs>
<polygon clip-path="url(#clip3700)" points="
0,200 300,200 300,0 0,0 
  " fill="#ffffff" fill-opacity="1"/>
<defs>
  <clipPath id="clip01">
    <rect x="60" y="0" width="211" height="200"/>
  </clipPath>
</defs>
<polygon clip-path="url(#clip3700)" points="
22.3377,175.813 280.315,175.813 280.315,11.811 22.3377,11.811 
  " fill="#ffffff" fill-opacity="1"/>
<defs>
  <clipPath id="clip02">
    <rect x="22" y="11" width="259" height="165"/>
  </clipPath>
</defs>
<polyline clip-path="url(#clip3702)" style="stroke:#000000; stroke-width:0.5; stroke-opacity:0.1; fill:none" points="
  22.3377,173.353 22.3377,14.2711 
  "/>
<polyline clip-path="url(#clip3702)" style="stroke:#000000; stroke-width:0.5; stroke-opacity:0.1; fill:none" points="
  73.9331,173.353 73.9331,14.2711 
  "/>
<polyline clip-path="url(#clip3702)" style="stroke:#000000; stroke-width:0.5; stroke-opacity:0.1; fill:none" points="
  125.529,173.353 125.529,14.2711 
  "/>
<polyline clip-path="url(#clip3702)" style="stroke:#000000; stroke-width:0.5; stroke-opacity:0.1; fill:none" points="
  177.124,173.353 177.124,14.2711 
  "/>
<polyline clip-path="url(#clip3702)" style="stroke:#000000; stroke-width:0.5; stroke-opacity:0.1; fill:none" points="
  228.72,173.353 228.72,14.2711 
  "/>
<polyline clip-path="url(#clip3702)" style="stroke:#000000; stroke-width:0.5; stroke-opacity:0.1; fill:none" points="
  280.315,173.353 280.315,14.2711 
  "/>
<polyline clip-path="url(#clip3702)" style="stroke:#000000; stroke-width:0.5; stroke-opacity:0.1; fill:none" points="
  26.2073,157.451 276.445,157.451 
  "/>
<polyline clip-path="url(#clip3702)" style="stroke:#000000; stroke-width:0.5; stroke-opacity:0.1; fill:none" points="
  26.2073,132.74 276.445,132.74 
  "/>
<polyline clip-path="url(#clip3702)" style="stroke:#000000; stroke-width:0.5; stroke-opacity:0.1; fill:none" points="
  26.2073,108.029 276.445,108.029 
  "/>
<polyline clip-path="url(#clip3702)" style="stroke:#000000; stroke-width:0.5; stroke-opacity:0.1; fill:none" points="
  26.2073,83.3178 276.445,83.3178 
  "/>
<polyline clip-path="url(#clip3702)" style="stroke:#000000; stroke-width:0.5; stroke-opacity:0.1; fill:none" points="
  26.2073,58.6067 276.445,58.6067 
  "/>
<polyline clip-path="url(#clip3702)" style="stroke:#000000; stroke-width:0.5; stroke-opacity:0.1; fill:none" points="
  26.2073,33.8956 276.445,33.8956 
  "/>
<polyline clip-path="url(#clip3700)" style="stroke:#000000; stroke-width:1; stroke-opacity:1; fill:none" points="
  22.3377,175.813 280.315,175.813 
  "/>
<polyline clip-path="url(#clip3700)" style="stroke:#000000; stroke-width:1; stroke-opacity:1; fill:none" points="
  22.3377,175.813 22.3377,11.811 
  "/>
<polyline clip-path="url(#clip3700)" style="stroke:#000000; stroke-width:1; stroke-opacity:1; fill:none" points="
  22.3377,175.813 22.3377,173.353 
  "/>
<polyline clip-path="url(#clip3700)" style="stroke:#000000; stroke-width:1; stroke-opacity:1; fill:none" points="
  73.9331,175.813 73.9331,173.353 
  "/>
<polyline clip-path="url(#clip3700)" style="stroke:#000000; stroke-width:1; stroke-opacity:1; fill:none" points="
  125.529,175.813 125.529,173.353 
  "/>
<polyline clip-path="url(#clip3700)" style="stroke:#000000; stroke-width:1; stroke-opacity:1; fill:none" points="
  177.124,175.813 177.124,173.353 
  "/>
<polyline clip-path="url(#clip3700)" style="stroke:#000000; stroke-width:1; stroke-opacity:1; fill:none" points="
  228.72,175.813 228.72,173.353 
  "/>
<polyline clip-path="url(#clip3700)" style="stroke:#000000; stroke-width:1; stroke-opacity:1; fill:none" points="
  280.315,175.813 280.315,173.353 
  "/>
<polyline clip-path="url(#clip3700)" style="stroke:#000000; stroke-width:1; stroke-opacity:1; fill:none" points="
  22.3377,157.451 26.2073,157.451 
  "/>
<polyline clip-path="url(#clip3700)" style="stroke:#000000; stroke-width:1; stroke-opacity:1; fill:none" points="
  22.3377,132.74 26.2073,132.74 
  "/>
<polyline clip-path="url(#clip3700)" style="stroke:#000000; stroke-width:1; stroke-opacity:1; fill:none" points="
  22.3377,108.029 26.2073,108.029 
  "/>
<polyline clip-path="url(#clip3700)" style="stroke:#000000; stroke-width:1; stroke-opacity:1; fill:none" points="
  22.3377,83.3178 26.2073,83.3178 
  "/>
<polyline clip-path="url(#clip3700)" style="stroke:#000000; stroke-width:1; stroke-opacity:1; fill:none" points="
  22.3377,58.6067 26.2073,58.6067 
  "/>
<polyline clip-path="url(#clip3700)" style="stroke:#000000; stroke-width:1; stroke-opacity:1; fill:none" points="
  22.3377,33.8956 26.2073,33.8956 
  "/>
<g clip-path="url(#clip3700)">
<text style="fill:#000000; fill-opacity:1; font-family:Arial,Helvetica Neue,Helvetica,sans-serif; font-size:12; text-anchor:middle;" transform="rotate(0, 22.3377, 188.113)" x="22.3377" y="188.113">0</text>
</g>
<g clip-path="url(#clip3700)">
<text style="fill:#000000; fill-opacity:1; font-family:Arial,Helvetica Neue,Helvetica,sans-serif; font-size:12; text-anchor:middle;" transform="rotate(0, 73.9331, 188.113)" x="73.9331" y="188.113">1</text>
</g>
<g clip-path="url(#clip3700)">
<text style="fill:#000000; fill-opacity:1; font-family:Arial,Helvetica Neue,Helvetica,sans-serif; font-size:12; text-anchor:middle;" transform="rotate(0, 125.529, 188.113)" x="125.529" y="188.113">2</text>
</g>
<g clip-path="url(#clip3700)">
<text style="fill:#000000; fill-opacity:1; font-family:Arial,Helvetica Neue,Helvetica,sans-serif; font-size:12; text-anchor:middle;" transform="rotate(0, 177.124, 188.113)" x="177.124" y="188.113">3</text>
</g>
<g clip-path="url(#clip3700)">
<text style="fill:#000000; fill-opacity:1; font-family:Arial,Helvetica Neue,Helvetica,sans-serif; font-size:12; text-anchor:middle;" transform="rotate(0, 228.72, 188.113)" x="228.72" y="188.113">4</text>
</g>
<g clip-path="url(#clip3700)">
<text style="fill:#000000; fill-opacity:1; font-family:Arial,Helvetica Neue,Helvetica,sans-serif; font-size:12; text-anchor:middle;" transform="rotate(0, 280.315, 188.113)" x="280.315" y="188.113">5</text>
</g>
<g clip-path="url(#clip3700)">
<text style="fill:#000000; fill-opacity:1; font-family:Arial,Helvetica Neue,Helvetica,sans-serif; font-size:12; text-anchor:end;" transform="rotate(0, 19.3377, 161.951)" x="19.3377" y="161.951">1</text>
</g>
<g clip-path="url(#clip3700)">
<text style="fill:#000000; fill-opacity:1; font-family:Arial,Helvetica Neue,Helvetica,sans-serif; font-size:12; text-anchor:end;" transform="rotate(0, 19.3377, 137.24)" x="19.3377" y="137.24">2</text>
</g>
<g clip-path="url(#clip3700)">
<text style="fill:#000000; fill-opacity:1; font-family:Arial,Helvetica Neue,Helvetica,sans-serif; font-size:12; text-anchor:end;" transform="rotate(0, 19.3377, 112.529)" x="19.3377" y="112.529">3</text>
</g>
<g clip-path="url(#clip3700)">
<text style="fill:#000000; fill-opacity:1; font-family:Arial,Helvetica Neue,Helvetica,sans-serif; font-size:12; text-anchor:end;" transform="rotate(0, 19.3377, 87.8178)" x="19.3377" y="87.8178">4</text>
</g>
<g clip-path="url(#clip3700)">
<text style="fill:#000000; fill-opacity:1; font-family:Arial,Helvetica Neue,Helvetica,sans-serif; font-size:12; text-anchor:end;" transform="rotate(0, 19.3377, 63.1067)" x="19.3377" y="63.1067">5</text>
</g>
<g clip-path="url(#clip3700)">
<text style="fill:#000000; fill-opacity:1; font-family:Arial,Helvetica Neue,Helvetica,sans-serif; font-size:12; text-anchor:end;" transform="rotate(0, 19.3377, 38.3956)" x="19.3377" y="38.3956">6</text>
</g>
<polyline clip-path="url(#clip3702)" style="stroke:#009af9; stroke-width:1; stroke-opacity:1; fill:none" points="
  22.3377,157.451 24.9174,156.764 
  "/>
<polyline clip-path="url(#clip3702)" style="stroke:#009af9; stroke-width:1; stroke-opacity:1; fill:none" points="
  24.9174,156.764 27.4972,155.942 
  "/>
<polyline clip-path="url(#clip3702)" style="stroke:#009af9; stroke-width:1; stroke-opacity:1; fill:none" points="
  27.4972,155.942 30.077,154.984 
  "/>
<polyline clip-path="url(#clip3702)" style="stroke:#009af9; stroke-width:1; stroke-opacity:1; fill:none" points="
  30.077,154.984 32.6568,153.892 
  "/>
<polyline clip-path="url(#clip3702)" style="stroke:#009af9; stroke-width:1; stroke-opacity:1; fill:none" points="
  32.6568,153.892 35.2365,152.663 
  "/>
<polyline clip-path="url(#clip3702)" style="stroke:#009af9; stroke-width:1; stroke-opacity:1; fill:none" points="
  35.2365,152.663 37.8163,151.294 
  "/>
<polyline clip-path="url(#clip3702)" style="stroke:#009af9; stroke-width:1; stroke-opacity:1; fill:none" points="
  37.8163,151.294 40.3961,149.781 
  "/>
<polyline clip-path="url(#clip3702)" style="stroke:#009af9; stroke-width:1; stroke-opacity:1; fill:none" points="
  40.3961,149.781 42.9758,148.119 
  "/>
<polyline clip-path="url(#clip3702)" style="stroke:#009af9; stroke-width:1; stroke-opacity:1; fill:none" points="
  42.9758,148.119 45.5556,146.302 
  "/>
<polyline clip-path="url(#clip3702)" style="stroke:#009af9; stroke-width:1; stroke-opacity:1; fill:none" points="
  45.5556,146.302 48.1354,144.324 
  "/>
<polyline clip-path="url(#clip3702)" style="stroke:#009af9; stroke-width:1; stroke-opacity:1; fill:none" points="
  48.1354,144.324 50.7152,142.176 
  "/>
<polyline clip-path="url(#clip3702)" style="stroke:#009af9; stroke-width:1; stroke-opacity:1; fill:none" points="
  50.7152,142.176 53.2949,139.85 
  "/>
<polyline clip-path="url(#clip3702)" style="stroke:#009af9; stroke-width:1; stroke-opacity:1; fill:none" points="
  53.2949,139.85 55.8747,137.338 
  "/>
<polyline clip-path="url(#clip3702)" style="stroke:#009af9; stroke-width:1; stroke-opacity:1; fill:none" points="
  55.8747,137.338 58.4545,134.628 
  "/>
<polyline clip-path="url(#clip3702)" style="stroke:#009af9; stroke-width:1; stroke-opacity:1; fill:none" points="
  58.4545,134.628 61.0343,131.712 
  "/>
<polyline clip-path="url(#clip3702)" style="stroke:#009af9; stroke-width:1; stroke-opacity:1; fill:none" points="
  61.0343,131.712 63.614,128.579 
  "/>
<polyline clip-path="url(#clip3702)" style="stroke:#009af9; stroke-width:1; stroke-opacity:1; fill:none" points="
  63.614,128.579 66.1938,125.216 
  "/>
<polyline clip-path="url(#clip3702)" style="stroke:#009af9; stroke-width:1; stroke-opacity:1; fill:none" points="
  66.1938,125.216 68.7736,121.614 
  "/>
<polyline clip-path="url(#clip3702)" style="stroke:#009af9; stroke-width:1; stroke-opacity:1; fill:none" points="
  68.7736,121.614 71.3533,117.759 
  "/>
<polyline clip-path="url(#clip3702)" style="stroke:#009af9; stroke-width:1; stroke-opacity:1; fill:none" points="
  71.3533,117.759 73.9331,113.642 
  "/>
<polyline clip-path="url(#clip3702)" style="stroke:#009af9; stroke-width:1; stroke-opacity:1; fill:none" points="
  73.9331,113.642 76.5129,109.251 
  "/>
<polyline clip-path="url(#clip3702)" style="stroke:#009af9; stroke-width:1; stroke-opacity:1; fill:none" points="
  76.5129,109.251 79.0927,104.575 
  "/>
<polyline clip-path="url(#clip3702)" style="stroke:#009af9; stroke-width:1; stroke-opacity:1; fill:none" points="
  79.0927,104.575 81.6724,99.6078 
  "/>
<polyline clip-path="url(#clip3702)" style="stroke:#009af9; stroke-width:1; stroke-opacity:1; fill:none" points="
  81.6724,99.6078 84.2522,94.3419 
  "/>
<polyline clip-path="url(#clip3702)" style="stroke:#009af9; stroke-width:1; stroke-opacity:1; fill:none" points="
  84.2522,94.3419 86.832,88.7746 
  "/>
<polyline clip-path="url(#clip3702)" style="stroke:#009af9; stroke-width:1; stroke-opacity:1; fill:none" points="
  86.832,88.7746 89.4118,82.9079 
  "/>
<polyline clip-path="url(#clip3702)" style="stroke:#009af9; stroke-width:1; stroke-opacity:1; fill:none" points="
  89.4118,82.9079 91.9915,76.7503 
  "/>
<polyline clip-path="url(#clip3702)" style="stroke:#009af9; stroke-width:1; stroke-opacity:1; fill:none" points="
  91.9915,76.7503 94.5713,70.319 
  "/>
<polyline clip-path="url(#clip3702)" style="stroke:#009af9; stroke-width:1; stroke-opacity:1; fill:none" points="
  94.5713,70.319 97.1511,63.644 
  "/>
<polyline clip-path="url(#clip3702)" style="stroke:#009af9; stroke-width:1; stroke-opacity:1; fill:none" points="
  97.1511,63.644 99.7309,56.7718 
  "/>
<polyline clip-path="url(#clip3702)" style="stroke:#009af9; stroke-width:1; stroke-opacity:1; fill:none" points="
  99.7309,56.7718 102.311,49.7714 
  "/>
<polyline clip-path="url(#clip3702)" style="stroke:#009af9; stroke-width:1; stroke-opacity:1; fill:none" points="
  102.311,49.7714 104.89,42.7416 
  "/>
<polyline clip-path="url(#clip3702)" style="stroke:#009af9; stroke-width:1; stroke-opacity:1; fill:none" points="
  104.89,42.7416 107.47,35.8207 
  "/>
<polyline clip-path="url(#clip3702)" style="stroke:#009af9; stroke-width:1; stroke-opacity:1; fill:none" points="
  107.47,35.8207 110.05,29.1971 
  "/>
<polyline clip-path="url(#clip3702)" style="stroke:#009af9; stroke-width:1; stroke-opacity:1; fill:none" points="
  110.05,29.1971 112.63,23.1217 
  "/>
<polyline clip-path="url(#clip3702)" style="stroke:#009af9; stroke-width:1; stroke-opacity:1; fill:none" points="
  112.63,23.1217 115.209,17.9187 
  "/>
<polyline clip-path="url(#clip3702)" style="stroke:#009af9; stroke-width:1; stroke-opacity:1; fill:none" points="
  115.209,17.9187 117.789,13.991 
  "/>
<polyline clip-path="url(#clip3702)" style="stroke:#009af9; stroke-width:1; stroke-opacity:1; fill:none" points="
  117.789,13.991 120.369,11.811 
  "/>
<polyline clip-path="url(#clip3702)" style="stroke:#009af9; stroke-width:1; stroke-opacity:1; fill:none" points="
  120.369,11.811 122.949,11.887 
  "/>
<polyline clip-path="url(#clip3702)" style="stroke:#009af9; stroke-width:1; stroke-opacity:1; fill:none" points="
  122.949,11.887 125.529,14.6904 
  "/>
<polyline clip-path="url(#clip3702)" style="stroke:#009af9; stroke-width:1; stroke-opacity:1; fill:none" points="
  125.529,14.6904 128.108,20.5427 
  "/>
<polyline clip-path="url(#clip3702)" style="stroke:#009af9; stroke-width:1; stroke-opacity:1; fill:none" points="
  128.108,20.5427 130.688,29.4797 
  "/>
<polyline clip-path="url(#clip3702)" style="stroke:#009af9; stroke-width:1; stroke-opacity:1; fill:none" points="
  130.688,29.4797 133.268,41.1464 
  "/>
<polyline clip-path="url(#clip3702)" style="stroke:#009af9; stroke-width:1; stroke-opacity:1; fill:none" points="
  133.268,41.1464 135.848,54.7909 
  "/>
<polyline clip-path="url(#clip3702)" style="stroke:#009af9; stroke-width:1; stroke-opacity:1; fill:none" points="
  135.848,54.7909 138.427,69.3958 
  "/>
<polyline clip-path="url(#clip3702)" style="stroke:#009af9; stroke-width:1; stroke-opacity:1; fill:none" points="
  138.427,69.3958 141.007,83.907 
  "/>
<polyline clip-path="url(#clip3702)" style="stroke:#009af9; stroke-width:1; stroke-opacity:1; fill:none" points="
  141.007,83.907 143.587,97.4579 
  "/>
<polyline clip-path="url(#clip3702)" style="stroke:#009af9; stroke-width:1; stroke-opacity:1; fill:none" points="
  143.587,97.4579 146.167,109.495 
  "/>
<polyline clip-path="url(#clip3702)" style="stroke:#009af9; stroke-width:1; stroke-opacity:1; fill:none" points="
  146.167,109.495 148.747,119.784 
  "/>
<polyline clip-path="url(#clip3702)" style="stroke:#009af9; stroke-width:1; stroke-opacity:1; fill:none" points="
  148.747,119.784 151.326,128.333 
  "/>
<polyline clip-path="url(#clip3702)" style="stroke:#009af9; stroke-width:1; stroke-opacity:1; fill:none" points="
  151.326,128.333 153.906,135.296 
  "/>
<polyline clip-path="url(#clip3702)" style="stroke:#009af9; stroke-width:1; stroke-opacity:1; fill:none" points="
  153.906,135.296 156.486,140.89 
  "/>
<polyline clip-path="url(#clip3702)" style="stroke:#009af9; stroke-width:1; stroke-opacity:1; fill:none" points="
  156.486,140.89 159.066,145.342 
  "/>
<polyline clip-path="url(#clip3702)" style="stroke:#009af9; stroke-width:1; stroke-opacity:1; fill:none" points="
  159.066,145.342 161.645,148.861 
  "/>
<polyline clip-path="url(#clip3702)" style="stroke:#009af9; stroke-width:1; stroke-opacity:1; fill:none" points="
  161.645,148.861 164.225,151.622 
  "/>
<polyline clip-path="url(#clip3702)" style="stroke:#009af9; stroke-width:1; stroke-opacity:1; fill:none" points="
  164.225,151.622 166.805,153.77 
  "/>
<polyline clip-path="url(#clip3702)" style="stroke:#009af9; stroke-width:1; stroke-opacity:1; fill:none" points="
  166.805,153.77 169.385,155.42 
  "/>
<polyline clip-path="url(#clip3702)" style="stroke:#009af9; stroke-width:1; stroke-opacity:1; fill:none" points="
  169.385,155.42 171.964,156.662 
  "/>
<polyline clip-path="url(#clip3702)" style="stroke:#009af9; stroke-width:1; stroke-opacity:1; fill:none" points="
  171.964,156.662 174.544,157.565 
  "/>
<polyline clip-path="url(#clip3702)" style="stroke:#009af9; stroke-width:1; stroke-opacity:1; fill:none" points="
  174.544,157.565 177.124,158.184 
  "/>
<polyline clip-path="url(#clip3702)" style="stroke:#009af9; stroke-width:1; stroke-opacity:1; fill:none" points="
  177.124,158.184 179.704,158.56 
  "/>
<polyline clip-path="url(#clip3702)" style="stroke:#009af9; stroke-width:1; stroke-opacity:1; fill:none" points="
  179.704,158.56 182.284,158.724 
  "/>
<polyline clip-path="url(#clip3702)" style="stroke:#009af9; stroke-width:1; stroke-opacity:1; fill:none" points="
  182.284,158.724 184.863,158.7 
  "/>
<polyline clip-path="url(#clip3702)" style="stroke:#009af9; stroke-width:1; stroke-opacity:1; fill:none" points="
  184.863,158.7 187.443,158.506 
  "/>
<polyline clip-path="url(#clip3702)" style="stroke:#009af9; stroke-width:1; stroke-opacity:1; fill:none" points="
  187.443,158.506 190.023,158.156 
  "/>
<polyline clip-path="url(#clip3702)" style="stroke:#009af9; stroke-width:1; stroke-opacity:1; fill:none" points="
  190.023,158.156 192.603,157.658 
  "/>
<polyline clip-path="url(#clip3702)" style="stroke:#009af9; stroke-width:1; stroke-opacity:1; fill:none" points="
  192.603,157.658 195.182,157.02 
  "/>
<polyline clip-path="url(#clip3702)" style="stroke:#009af9; stroke-width:1; stroke-opacity:1; fill:none" points="
  195.182,157.02 197.762,156.244 
  "/>
<polyline clip-path="url(#clip3702)" style="stroke:#009af9; stroke-width:1; stroke-opacity:1; fill:none" points="
  197.762,156.244 200.342,155.334 
  "/>
<polyline clip-path="url(#clip3702)" style="stroke:#009af9; stroke-width:1; stroke-opacity:1; fill:none" points="
  200.342,155.334 202.922,154.289 
  "/>
<polyline clip-path="url(#clip3702)" style="stroke:#009af9; stroke-width:1; stroke-opacity:1; fill:none" points="
  202.922,154.289 205.502,153.108 
  "/>
<polyline clip-path="url(#clip3702)" style="stroke:#009af9; stroke-width:1; stroke-opacity:1; fill:none" points="
  205.502,153.108 208.081,151.788 
  "/>
<polyline clip-path="url(#clip3702)" style="stroke:#009af9; stroke-width:1; stroke-opacity:1; fill:none" points="
  208.081,151.788 210.661,150.326 
  "/>
<polyline clip-path="url(#clip3702)" style="stroke:#009af9; stroke-width:1; stroke-opacity:1; fill:none" points="
  210.661,150.326 213.241,148.717 
  "/>
<polyline clip-path="url(#clip3702)" style="stroke:#009af9; stroke-width:1; stroke-opacity:1; fill:none" points="
  213.241,148.717 215.821,146.955 
  "/>
<polyline clip-path="url(#clip3702)" style="stroke:#009af9; stroke-width:1; stroke-opacity:1; fill:none" points="
  215.821,146.955 218.4,145.033 
  "/>
<polyline clip-path="url(#clip3702)" style="stroke:#009af9; stroke-width:1; stroke-opacity:1; fill:none" points="
  218.4,145.033 220.98,142.946 
  "/>
<polyline clip-path="url(#clip3702)" style="stroke:#009af9; stroke-width:1; stroke-opacity:1; fill:none" points="
  220.98,142.946 223.56,140.683 
  "/>
<polyline clip-path="url(#clip3702)" style="stroke:#009af9; stroke-width:1; stroke-opacity:1; fill:none" points="
  223.56,140.683 226.14,138.237 
  "/>
<polyline clip-path="url(#clip3702)" style="stroke:#009af9; stroke-width:1; stroke-opacity:1; fill:none" points="
  226.14,138.237 228.72,135.597 
  "/>
<polyline clip-path="url(#clip3702)" style="stroke:#009af9; stroke-width:1; stroke-opacity:1; fill:none" points="
  228.72,135.597 231.299,132.755 
  "/>
<polyline clip-path="url(#clip3702)" style="stroke:#009af9; stroke-width:1; stroke-opacity:1; fill:none" points="
  231.299,132.755 233.879,129.698 
  "/>
<polyline clip-path="url(#clip3702)" style="stroke:#009af9; stroke-width:1; stroke-opacity:1; fill:none" points="
  233.879,129.698 236.459,126.417 
  "/>
<polyline clip-path="url(#clip3702)" style="stroke:#009af9; stroke-width:1; stroke-opacity:1; fill:none" points="
  236.459,126.417 239.039,122.9 
  "/>
<polyline clip-path="url(#clip3702)" style="stroke:#009af9; stroke-width:1; stroke-opacity:1; fill:none" points="
  239.039,122.9 241.618,119.134 
  "/>
<polyline clip-path="url(#clip3702)" style="stroke:#009af9; stroke-width:1; stroke-opacity:1; fill:none" points="
  241.618,119.134 244.198,115.11 
  "/>
<polyline clip-path="url(#clip3702)" style="stroke:#009af9; stroke-width:1; stroke-opacity:1; fill:none" points="
  244.198,115.11 246.778,110.816 
  "/>
<polyline clip-path="url(#clip3702)" style="stroke:#009af9; stroke-width:1; stroke-opacity:1; fill:none" points="
  246.778,110.816 249.358,106.24 
  "/>
<polyline clip-path="url(#clip3702)" style="stroke:#009af9; stroke-width:1; stroke-opacity:1; fill:none" points="
  249.358,106.24 251.937,101.376 
  "/>
<polyline clip-path="url(#clip3702)" style="stroke:#009af9; stroke-width:1; stroke-opacity:1; fill:none" points="
  251.937,101.376 254.517,96.2146 
  "/>
<polyline clip-path="url(#clip3702)" style="stroke:#009af9; stroke-width:1; stroke-opacity:1; fill:none" points="
  254.517,96.2146 257.097,90.7526 
  "/>
<polyline clip-path="url(#clip3702)" style="stroke:#009af9; stroke-width:1; stroke-opacity:1; fill:none" points="
  257.097,90.7526 259.677,84.9899 
  "/>
<polyline clip-path="url(#clip3702)" style="stroke:#009af9; stroke-width:1; stroke-opacity:1; fill:none" points="
  259.677,84.9899 262.257,78.9323 
  "/>
<polyline clip-path="url(#clip3702)" style="stroke:#009af9; stroke-width:1; stroke-opacity:1; fill:none" points="
  262.257,78.9323 264.836,72.5939 
  "/>
<polyline clip-path="url(#clip3702)" style="stroke:#009af9; stroke-width:1; stroke-opacity:1; fill:none" points="
  264.836,72.5939 267.416,65.9997 
  "/>
<polyline clip-path="url(#clip3702)" style="stroke:#009af9; stroke-width:1; stroke-opacity:1; fill:none" points="
  267.416,65.9997 269.996,59.1898 
  "/>
<polyline clip-path="url(#clip3702)" style="stroke:#009af9; stroke-width:1; stroke-opacity:1; fill:none" points="
  269.996,59.1898 272.576,52.2246 
  "/>
<polyline clip-path="url(#clip3702)" style="stroke:#009af9; stroke-width:1; stroke-opacity:1; fill:none" points="
  272.576,52.2246 275.155,45.1916 
  "/>
<polyline clip-path="url(#clip3702)" style="stroke:#009af9; stroke-width:1; stroke-opacity:1; fill:none" points="
  275.155,45.1916 277.735,38.2141 
  "/>
<polyline clip-path="url(#clip3702)" style="stroke:#009af9; stroke-width:1; stroke-opacity:1; fill:none" points="
  277.735,38.2141 280.315,31.4617 
  "/>
<polyline clip-path="url(#clip3702)" style="stroke:#e26f46; stroke-width:1; stroke-opacity:1; fill:none" points="
  22.3377,157.451 24.9174,159.788 
  "/>
<polyline clip-path="url(#clip3702)" style="stroke:#e26f46; stroke-width:1; stroke-opacity:1; fill:none" points="
  24.9174,159.788 27.4972,161.872 
  "/>
<polyline clip-path="url(#clip3702)" style="stroke:#e26f46; stroke-width:1; stroke-opacity:1; fill:none" points="
  27.4972,161.872 30.077,163.73 
  "/>
<polyline clip-path="url(#clip3702)" style="stroke:#e26f46; stroke-width:1; stroke-opacity:1; fill:none" points="
  30.077,163.73 32.6568,165.382 
  "/>
<polyline clip-path="url(#clip3702)" style="stroke:#e26f46; stroke-width:1; stroke-opacity:1; fill:none" points="
  32.6568,165.382 35.2365,166.85 
  "/>
<polyline clip-path="url(#clip3702)" style="stroke:#e26f46; stroke-width:1; stroke-opacity:1; fill:none" points="
  35.2365,166.85 37.8163,168.154 
  "/>
<polyline clip-path="url(#clip3702)" style="stroke:#e26f46; stroke-width:1; stroke-opacity:1; fill:none" points="
  37.8163,168.154 40.3961,169.308 
  "/>
<polyline clip-path="url(#clip3702)" style="stroke:#e26f46; stroke-width:1; stroke-opacity:1; fill:none" points="
  40.3961,169.308 42.9758,170.33 
  "/>
<polyline clip-path="url(#clip3702)" style="stroke:#e26f46; stroke-width:1; stroke-opacity:1; fill:none" points="
  42.9758,170.33 45.5556,171.232 
  "/>
<polyline clip-path="url(#clip3702)" style="stroke:#e26f46; stroke-width:1; stroke-opacity:1; fill:none" points="
  45.5556,171.232 48.1354,172.027 
  "/>
<polyline clip-path="url(#clip3702)" style="stroke:#e26f46; stroke-width:1; stroke-opacity:1; fill:none" points="
  48.1354,172.027 50.7152,172.724 
  "/>
<polyline clip-path="url(#clip3702)" style="stroke:#e26f46; stroke-width:1; stroke-opacity:1; fill:none" points="
  50.7152,172.724 53.2949,173.334 
  "/>
<polyline clip-path="url(#clip3702)" style="stroke:#e26f46; stroke-width:1; stroke-opacity:1; fill:none" points="
  53.2949,173.334 55.8747,173.863 
  "/>
<polyline clip-path="url(#clip3702)" style="stroke:#e26f46; stroke-width:1; stroke-opacity:1; fill:none" points="
  55.8747,173.863 58.4545,174.32 
  "/>
<polyline clip-path="url(#clip3702)" style="stroke:#e26f46; stroke-width:1; stroke-opacity:1; fill:none" points="
  58.4545,174.32 61.0343,174.709 
  "/>
<polyline clip-path="url(#clip3702)" style="stroke:#e26f46; stroke-width:1; stroke-opacity:1; fill:none" points="
  61.0343,174.709 63.614,175.036 
  "/>
<polyline clip-path="url(#clip3702)" style="stroke:#e26f46; stroke-width:1; stroke-opacity:1; fill:none" points="
  63.614,175.036 66.1938,175.303 
  "/>
<polyline clip-path="url(#clip3702)" style="stroke:#e26f46; stroke-width:1; stroke-opacity:1; fill:none" points="
  66.1938,175.303 68.7736,175.514 
  "/>
<polyline clip-path="url(#clip3702)" style="stroke:#e26f46; stroke-width:1; stroke-opacity:1; fill:none" points="
  68.7736,175.514 71.3533,175.669 
  "/>
<polyline clip-path="url(#clip3702)" style="stroke:#e26f46; stroke-width:1; stroke-opacity:1; fill:none" points="
  71.3533,175.669 73.9331,175.769 
  "/>
<polyline clip-path="url(#clip3702)" style="stroke:#e26f46; stroke-width:1; stroke-opacity:1; fill:none" points="
  73.9331,175.769 76.5129,175.813 
  "/>
<polyline clip-path="url(#clip3702)" style="stroke:#e26f46; stroke-width:1; stroke-opacity:1; fill:none" points="
  76.5129,175.813 79.0927,175.799 
  "/>
<polyline clip-path="url(#clip3702)" style="stroke:#e26f46; stroke-width:1; stroke-opacity:1; fill:none" points="
  79.0927,175.799 81.6724,175.723 
  "/>
<polyline clip-path="url(#clip3702)" style="stroke:#e26f46; stroke-width:1; stroke-opacity:1; fill:none" points="
  81.6724,175.723 84.2522,175.578 
  "/>
<polyline clip-path="url(#clip3702)" style="stroke:#e26f46; stroke-width:1; stroke-opacity:1; fill:none" points="
  84.2522,175.578 86.832,175.355 
  "/>
<polyline clip-path="url(#clip3702)" style="stroke:#e26f46; stroke-width:1; stroke-opacity:1; fill:none" points="
  86.832,175.355 89.4118,175.043 
  "/>
<polyline clip-path="url(#clip3702)" style="stroke:#e26f46; stroke-width:1; stroke-opacity:1; fill:none" points="
  89.4118,175.043 91.9915,174.625 
  "/>
<polyline clip-path="url(#clip3702)" style="stroke:#e26f46; stroke-width:1; stroke-opacity:1; fill:none" points="
  91.9915,174.625 94.5713,174.08 
  "/>
<polyline clip-path="url(#clip3702)" style="stroke:#e26f46; stroke-width:1; stroke-opacity:1; fill:none" points="
  94.5713,174.08 97.1511,173.381 
  "/>
<polyline clip-path="url(#clip3702)" style="stroke:#e26f46; stroke-width:1; stroke-opacity:1; fill:none" points="
  97.1511,173.381 99.7309,172.489 
  "/>
<polyline clip-path="url(#clip3702)" style="stroke:#e26f46; stroke-width:1; stroke-opacity:1; fill:none" points="
  99.7309,172.489 102.311,171.356 
  "/>
<polyline clip-path="url(#clip3702)" style="stroke:#e26f46; stroke-width:1; stroke-opacity:1; fill:none" points="
  102.311,171.356 104.89,169.917 
  "/>
<polyline clip-path="url(#clip3702)" style="stroke:#e26f46; stroke-width:1; stroke-opacity:1; fill:none" points="
  104.89,169.917 107.47,168.089 
  "/>
<polyline clip-path="url(#clip3702)" style="stroke:#e26f46; stroke-width:1; stroke-opacity:1; fill:none" points="
  107.47,168.089 110.05,165.764 
  "/>
<polyline clip-path="url(#clip3702)" style="stroke:#e26f46; stroke-width:1; stroke-opacity:1; fill:none" points="
  110.05,165.764 112.63,162.808 
  "/>
<polyline clip-path="url(#clip3702)" style="stroke:#e26f46; stroke-width:1; stroke-opacity:1; fill:none" points="
  112.63,162.808 115.209,159.054 
  "/>
<polyline clip-path="url(#clip3702)" style="stroke:#e26f46; stroke-width:1; stroke-opacity:1; fill:none" points="
  115.209,159.054 117.789,154.315 
  "/>
<polyline clip-path="url(#clip3702)" style="stroke:#e26f46; stroke-width:1; stroke-opacity:1; fill:none" points="
  117.789,154.315 120.369,148.393 
  "/>
<polyline clip-path="url(#clip3702)" style="stroke:#e26f46; stroke-width:1; stroke-opacity:1; fill:none" points="
  120.369,148.393 122.949,141.121 
  "/>
<polyline clip-path="url(#clip3702)" style="stroke:#e26f46; stroke-width:1; stroke-opacity:1; fill:none" points="
  122.949,141.121 125.529,132.425 
  "/>
<polyline clip-path="url(#clip3702)" style="stroke:#e26f46; stroke-width:1; stroke-opacity:1; fill:none" points="
  125.529,132.425 128.108,122.409 
  "/>
<polyline clip-path="url(#clip3702)" style="stroke:#e26f46; stroke-width:1; stroke-opacity:1; fill:none" points="
  128.108,122.409 130.688,111.444 
  "/>
<polyline clip-path="url(#clip3702)" style="stroke:#e26f46; stroke-width:1; stroke-opacity:1; fill:none" points="
  130.688,111.444 133.268,100.201 
  "/>
<polyline clip-path="url(#clip3702)" style="stroke:#e26f46; stroke-width:1; stroke-opacity:1; fill:none" points="
  133.268,100.201 135.848,89.587 
  "/>
<polyline clip-path="url(#clip3702)" style="stroke:#e26f46; stroke-width:1; stroke-opacity:1; fill:none" points="
  135.848,89.587 138.427,80.5629 
  "/>
<polyline clip-path="url(#clip3702)" style="stroke:#e26f46; stroke-width:1; stroke-opacity:1; fill:none" points="
  138.427,80.5629 141.007,73.9139 
  "/>
<polyline clip-path="url(#clip3702)" style="stroke:#e26f46; stroke-width:1; stroke-opacity:1; fill:none" points="
  141.007,73.9139 143.587,70.0717 
  "/>
<polyline clip-path="url(#clip3702)" style="stroke:#e26f46; stroke-width:1; stroke-opacity:1; fill:none" points="
  143.587,70.0717 146.167,69.0666 
  "/>
<polyline clip-path="url(#clip3702)" style="stroke:#e26f46; stroke-width:1; stroke-opacity:1; fill:none" points="
  146.167,69.0666 148.747,70.6028 
  "/>
<polyline clip-path="url(#clip3702)" style="stroke:#e26f46; stroke-width:1; stroke-opacity:1; fill:none" points="
  148.747,70.6028 151.326,74.1937 
  "/>
<polyline clip-path="url(#clip3702)" style="stroke:#e26f46; stroke-width:1; stroke-opacity:1; fill:none" points="
  151.326,74.1937 153.906,79.2925 
  "/>
<polyline clip-path="url(#clip3702)" style="stroke:#e26f46; stroke-width:1; stroke-opacity:1; fill:none" points="
  153.906,79.2925 156.486,85.3841 
  "/>
<polyline clip-path="url(#clip3702)" style="stroke:#e26f46; stroke-width:1; stroke-opacity:1; fill:none" points="
  156.486,85.3841 159.066,92.0322 
  "/>
<polyline clip-path="url(#clip3702)" style="stroke:#e26f46; stroke-width:1; stroke-opacity:1; fill:none" points="
  159.066,92.0322 161.645,98.8952 
  "/>
<polyline clip-path="url(#clip3702)" style="stroke:#e26f46; stroke-width:1; stroke-opacity:1; fill:none" points="
  161.645,98.8952 164.225,105.721 
  "/>
<polyline clip-path="url(#clip3702)" style="stroke:#e26f46; stroke-width:1; stroke-opacity:1; fill:none" points="
  164.225,105.721 166.805,112.333 
  "/>
<polyline clip-path="url(#clip3702)" style="stroke:#e26f46; stroke-width:1; stroke-opacity:1; fill:none" points="
  166.805,112.333 169.385,118.617 
  "/>
<polyline clip-path="url(#clip3702)" style="stroke:#e26f46; stroke-width:1; stroke-opacity:1; fill:none" points="
  169.385,118.617 171.964,124.503 
  "/>
<polyline clip-path="url(#clip3702)" style="stroke:#e26f46; stroke-width:1; stroke-opacity:1; fill:none" points="
  171.964,124.503 174.544,129.957 
  "/>
<polyline clip-path="url(#clip3702)" style="stroke:#e26f46; stroke-width:1; stroke-opacity:1; fill:none" points="
  174.544,129.957 177.124,134.968 
  "/>
<polyline clip-path="url(#clip3702)" style="stroke:#e26f46; stroke-width:1; stroke-opacity:1; fill:none" points="
  177.124,134.968 179.704,139.54 
  "/>
<polyline clip-path="url(#clip3702)" style="stroke:#e26f46; stroke-width:1; stroke-opacity:1; fill:none" points="
  179.704,139.54 182.284,143.69 
  "/>
<polyline clip-path="url(#clip3702)" style="stroke:#e26f46; stroke-width:1; stroke-opacity:1; fill:none" points="
  182.284,143.69 184.863,147.441 
  "/>
<polyline clip-path="url(#clip3702)" style="stroke:#e26f46; stroke-width:1; stroke-opacity:1; fill:none" points="
  184.863,147.441 187.443,150.819 
  "/>
<polyline clip-path="url(#clip3702)" style="stroke:#e26f46; stroke-width:1; stroke-opacity:1; fill:none" points="
  187.443,150.819 190.023,153.853 
  "/>
<polyline clip-path="url(#clip3702)" style="stroke:#e26f46; stroke-width:1; stroke-opacity:1; fill:none" points="
  190.023,153.853 192.603,156.571 
  "/>
<polyline clip-path="url(#clip3702)" style="stroke:#e26f46; stroke-width:1; stroke-opacity:1; fill:none" points="
  192.603,156.571 195.182,159.002 
  "/>
<polyline clip-path="url(#clip3702)" style="stroke:#e26f46; stroke-width:1; stroke-opacity:1; fill:none" points="
  195.182,159.002 197.762,161.171 
  "/>
<polyline clip-path="url(#clip3702)" style="stroke:#e26f46; stroke-width:1; stroke-opacity:1; fill:none" points="
  197.762,161.171 200.342,163.105 
  "/>
<polyline clip-path="url(#clip3702)" style="stroke:#e26f46; stroke-width:1; stroke-opacity:1; fill:none" points="
  200.342,163.105 202.922,164.827 
  "/>
<polyline clip-path="url(#clip3702)" style="stroke:#e26f46; stroke-width:1; stroke-opacity:1; fill:none" points="
  202.922,164.827 205.502,166.357 
  "/>
<polyline clip-path="url(#clip3702)" style="stroke:#e26f46; stroke-width:1; stroke-opacity:1; fill:none" points="
  205.502,166.357 208.081,167.716 
  "/>
<polyline clip-path="url(#clip3702)" style="stroke:#e26f46; stroke-width:1; stroke-opacity:1; fill:none" points="
  208.081,167.716 210.661,168.921 
  "/>
<polyline clip-path="url(#clip3702)" style="stroke:#e26f46; stroke-width:1; stroke-opacity:1; fill:none" points="
  210.661,168.921 213.241,169.988 
  "/>
<polyline clip-path="url(#clip3702)" style="stroke:#e26f46; stroke-width:1; stroke-opacity:1; fill:none" points="
  213.241,169.988 215.821,170.93 
  "/>
<polyline clip-path="url(#clip3702)" style="stroke:#e26f46; stroke-width:1; stroke-opacity:1; fill:none" points="
  215.821,170.93 218.4,171.761 
  "/>
<polyline clip-path="url(#clip3702)" style="stroke:#e26f46; stroke-width:1; stroke-opacity:1; fill:none" points="
  218.4,171.761 220.98,172.491 
  "/>
<polyline clip-path="url(#clip3702)" style="stroke:#e26f46; stroke-width:1; stroke-opacity:1; fill:none" points="
  220.98,172.491 223.56,173.13 
  "/>
<polyline clip-path="url(#clip3702)" style="stroke:#e26f46; stroke-width:1; stroke-opacity:1; fill:none" points="
  223.56,173.13 226.14,173.687 
  "/>
<polyline clip-path="url(#clip3702)" style="stroke:#e26f46; stroke-width:1; stroke-opacity:1; fill:none" points="
  226.14,173.687 228.72,174.169 
  "/>
<polyline clip-path="url(#clip3702)" style="stroke:#e26f46; stroke-width:1; stroke-opacity:1; fill:none" points="
  228.72,174.169 231.299,174.581 
  "/>
<polyline clip-path="url(#clip3702)" style="stroke:#e26f46; stroke-width:1; stroke-opacity:1; fill:none" points="
  231.299,174.581 233.879,174.929 
  "/>
<polyline clip-path="url(#clip3702)" style="stroke:#e26f46; stroke-width:1; stroke-opacity:1; fill:none" points="
  233.879,174.929 236.459,175.216 
  "/>
<polyline clip-path="url(#clip3702)" style="stroke:#e26f46; stroke-width:1; stroke-opacity:1; fill:none" points="
  236.459,175.216 239.039,175.446 
  "/>
<polyline clip-path="url(#clip3702)" style="stroke:#e26f46; stroke-width:1; stroke-opacity:1; fill:none" points="
  239.039,175.446 241.618,175.621 
  "/>
<polyline clip-path="url(#clip3702)" style="stroke:#e26f46; stroke-width:1; stroke-opacity:1; fill:none" points="
  241.618,175.621 244.198,175.74 
  "/>
<polyline clip-path="url(#clip3702)" style="stroke:#e26f46; stroke-width:1; stroke-opacity:1; fill:none" points="
  244.198,175.74 246.778,175.804 
  "/>
<polyline clip-path="url(#clip3702)" style="stroke:#e26f46; stroke-width:1; stroke-opacity:1; fill:none" points="
  246.778,175.804 249.358,175.811 
  "/>
<polyline clip-path="url(#clip3702)" style="stroke:#e26f46; stroke-width:1; stroke-opacity:1; fill:none" points="
  249.358,175.811 251.937,175.757 
  "/>
<polyline clip-path="url(#clip3702)" style="stroke:#e26f46; stroke-width:1; stroke-opacity:1; fill:none" points="
  251.937,175.757 254.517,175.637 
  "/>
<polyline clip-path="url(#clip3702)" style="stroke:#e26f46; stroke-width:1; stroke-opacity:1; fill:none" points="
  254.517,175.637 257.097,175.442 
  "/>
<polyline clip-path="url(#clip3702)" style="stroke:#e26f46; stroke-width:1; stroke-opacity:1; fill:none" points="
  257.097,175.442 259.677,175.163 
  "/>
<polyline clip-path="url(#clip3702)" style="stroke:#e26f46; stroke-width:1; stroke-opacity:1; fill:none" points="
  259.677,175.163 262.257,174.784 
  "/>
<polyline clip-path="url(#clip3702)" style="stroke:#e26f46; stroke-width:1; stroke-opacity:1; fill:none" points="
  262.257,174.784 264.836,174.286 
  "/>
<polyline clip-path="url(#clip3702)" style="stroke:#e26f46; stroke-width:1; stroke-opacity:1; fill:none" points="
  264.836,174.286 267.416,173.645 
  "/>
<polyline clip-path="url(#clip3702)" style="stroke:#e26f46; stroke-width:1; stroke-opacity:1; fill:none" points="
  267.416,173.645 269.996,172.825 
  "/>
<polyline clip-path="url(#clip3702)" style="stroke:#e26f46; stroke-width:1; stroke-opacity:1; fill:none" points="
  269.996,172.825 272.576,171.782 
  "/>
<polyline clip-path="url(#clip3702)" style="stroke:#e26f46; stroke-width:1; stroke-opacity:1; fill:none" points="
  272.576,171.782 275.155,170.459 
  "/>
<polyline clip-path="url(#clip3702)" style="stroke:#e26f46; stroke-width:1; stroke-opacity:1; fill:none" points="
  275.155,170.459 277.735,168.777 
  "/>
<polyline clip-path="url(#clip3702)" style="stroke:#e26f46; stroke-width:1; stroke-opacity:1; fill:none" points="
  277.735,168.777 280.315,166.64 
  "/>
<polygon clip-path="url(#clip3700)" points="
31.3377,60.051 73.8532,60.051 73.8532,14.691 31.3377,14.691 
  " fill="#ffffff" fill-opacity="1"/>
<polyline clip-path="url(#clip3700)" style="stroke:#000000; stroke-width:0.5; stroke-opacity:1; fill:none" points="
  31.3377,60.051 73.8532,60.051 73.8532,14.691 31.3377,14.691 31.3377,60.051 
  "/>
<polyline clip-path="url(#clip3700)" style="stroke:#009af9; stroke-width:1; stroke-opacity:1; fill:none" points="
  34.3377,29.811 52.3377,29.811 
  "/>
<g clip-path="url(#clip3700)">
<text style="fill:#000000; fill-opacity:1; font-family:Arial,Helvetica Neue,Helvetica,sans-serif; font-size:12; text-anchor:start;" transform="rotate(0, 55.3377, 34.311)" x="55.3377" y="34.311">y1</text>
</g>
<polyline clip-path="url(#clip3700)" style="stroke:#e26f46; stroke-width:1; stroke-opacity:1; fill:none" points="
  34.3377,44.931 52.3377,44.931 
  "/>
<g clip-path="url(#clip3700)">
<text style="fill:#000000; fill-opacity:1; font-family:Arial,Helvetica Neue,Helvetica,sans-serif; font-size:12; text-anchor:start;" transform="rotate(0, 55.3377, 49.431)" x="55.3377" y="49.431">y2</text>
</g>
</svg>
